HIERARCHY
ROOT m_avg_root
{
	OFFSET 0.000000 0.000000 0.000000
	CHANNELS 6 Xposition Yposition Zposition Xrotation Yrotation Zrotation
	JOINT m_avg_Pelvis
	{
		OFFSET -0.217368 97.272385 2.858379
		CHANNELS 6 Xposition Yposition Zposition Xrotation Yrotation Zrotation
		JOINT m_avg_L_Hip
		{
			OFFSET 5.858135 -8.228004 -1.766408
			CHANNELS 6 Xposition Yposition Zposition Xrotation Yrotation Zrotation
			JOINT m_avg_L_Knee
			{
				OFFSET 4.345143 -38.646946 0.803700
				CHANNELS 6 Xposition Yposition Zposition Xrotation Yrotation Zrotation
				JOINT m_avg_L_Ankle
				{
					OFFSET -1.479033 -42.687439 -3.742799
					CHANNELS 6 Xposition Yposition Zposition Xrotation Yrotation Zrotation
					JOINT m_avg_L_Foot
					{
						OFFSET 4.105436 -6.028594 12.204242
						CHANNELS 6 Xposition Yposition Zposition Xrotation Yrotation Zrotation
						End Site
						{
							OFFSET 0.000000 14.217667 0.000000
						}
					}
				}
			}
		}
		JOINT m_avg_R_Hip
		{
			OFFSET -6.030972 -9.051331 -1.354253
			CHANNELS 6 Xposition Yposition Zposition Xrotation Yrotation Zrotation
			JOINT m_avg_R_Knee
			{
				OFFSET -4.325663 -38.368786 -0.484305
				CHANNELS 6 Xposition Yposition Zposition Xrotation Yrotation Zrotation
				JOINT m_avg_R_Ankle
				{
					OFFSET 1.905554 -42.004559 -3.456167
					CHANNELS 6 Xposition Yposition Zposition Xrotation Yrotation Zrotation
					JOINT m_avg_R_Foot
					{
						OFFSET -3.483987 -6.210555 13.032329
						CHANNELS 6 Xposition Yposition Zposition Xrotation Yrotation Zrotation
						End Site
						{
							OFFSET 0.000000 14.850951 0.000000
						}
					}
				}
			}
		}
		JOINT m_avg_Spine1
		{
			OFFSET 0.443945 12.440353 -3.838522
			CHANNELS 6 Xposition Yposition Zposition Xrotation Yrotation Zrotation
			JOINT m_avg_Spine2
			{
				OFFSET 0.448844 13.795639 2.682033
				CHANNELS 6 Xposition Yposition Zposition Xrotation Yrotation Zrotation
				JOINT m_avg_Spine3
				{
					OFFSET -0.226459 5.603241 0.285504
					CHANNELS 6 Xposition Yposition Zposition Xrotation Yrotation Zrotation
					JOINT m_avg_Neck
					{
						OFFSET -1.339018 21.163559 -3.346758
						CHANNELS 6 Xposition Yposition Zposition Xrotation Yrotation Zrotation
						JOINT m_avg_Head
						{
							OFFSET 1.011321 8.893738 5.040986
							CHANNELS 6 Xposition Yposition Zposition Xrotation Yrotation Zrotation
							End Site
							{
								OFFSET 0.000000 10.272919 0.000000
							}
						}
					}
					JOINT m_avg_L_Collar
					{
						OFFSET 7.170248 11.399979 -1.889817
						CHANNELS 6 Xposition Yposition Zposition Xrotation Yrotation Zrotation
						JOINT m_avg_L_Shoulder
						{
							OFFSET 12.292139 4.520508 -1.904600
							CHANNELS 6 Xposition Yposition Zposition Xrotation Yrotation Zrotation
							JOINT m_avg_L_Elbow
							{
								OFFSET 25.533190 -1.564911 -2.294648
								CHANNELS 6 Xposition Yposition Zposition Xrotation Yrotation Zrotation
								JOINT m_avg_L_Wrist
								{
									OFFSET 26.570927 1.269821 -0.737473
									CHANNELS 6 Xposition Yposition Zposition Xrotation Yrotation Zrotation
									JOINT m_avg_L_Hand
									{
										OFFSET 8.669052 -1.063614 -1.559429
										CHANNELS 6 Xposition Yposition Zposition Xrotation Yrotation Zrotation
										End Site
										{
											OFFSET 0.000000 8.872177 0.000000
										}
									}
								}
							}
						}
					}
					JOINT m_avg_R_Collar
					{
						OFFSET -8.295365 11.247238 -2.370739
						CHANNELS 6 Xposition Yposition Zposition Xrotation Yrotation Zrotation
						JOINT m_avg_R_Shoulder
						{
							OFFSET -11.322830 4.685318 -0.847207
							CHANNELS 6 Xposition Yposition Zposition Xrotation Yrotation Zrotation
							JOINT m_avg_R_Elbow
							{
								OFFSET -26.012751 -1.436920 -3.126873
								CHANNELS 6 Xposition Yposition Zposition Xrotation Yrotation Zrotation
								JOINT m_avg_R_Wrist
								{
									OFFSET -26.910835 0.679367 -0.602676
									CHANNELS 6 Xposition Yposition Zposition Xrotation Yrotation Zrotation
									JOINT m_avg_R_Hand
									{
										OFFSET -8.875381 -0.865158 -1.010708
										CHANNELS 6 Xposition Yposition Zposition Xrotation Yrotation Zrotation
										End Site
										{
											OFFSET 0.000000 8.974548 0.000000
										}
									}
								}
							}
						}
					}
				}
			}
		}
	}
}
MOTION
Frames: 8
Frame Time: 0.041667
0.000000 0.000000 0.000000 -0.000009 -0.000009 -90.000207 32.651844 253.250000 4.060319 73.003985 3.225854 90.282158 5.858145 -8.228004 -1.766411 -4.003272 -0.559315 -0.061953 4.345151 -38.646946 0.803713 12.299035 -5.187014 -1.381862 -1.479039 -42.687420 -3.742804 0.668318 10.381705 -8.872984 4.105441 -6.028605 12.204229 -9.756466 0.846447 13.861064 -6.030964 -9.051317 -1.354244 -3.144049 -2.467956 1.486776 -4.325659 -38.368782 -0.484309 12.866724 2.010487 0.931333 1.905557 -42.004543 -3.456164 -2.725534 -13.324733 8.479277 -3.483984 -6.210550 13.032323 -3.157716 2.269626 -15.258153 0.443947 12.440351 -3.838507 4.804960 0.979872 1.739945 0.448852 13.795640 2.682013 -2.536140 1.355121 -4.426182 -0.226457 5.603224 0.285510 2.537941 2.360070 -2.039772 -1.339013 21.163544 -3.346787 -9.705370 -11.033544 -1.755162 1.011322 8.893736 5.040997 0.808299 -0.708181 0.452306 7.170249 11.399971 -1.889838 -4.019761 -4.925707 -6.931868 12.292139 4.520494 -1.904586 -3.081835 -13.199629 -51.930574 25.533184 -1.564909 -2.294614 21.857562 -58.073595 37.612482 26.570934 1.269799 -0.737461 -14.707617 -7.721341 7.360927 8.669020 -1.063595 -1.559435 0.000003 -0.000000 0.000001 -8.295360 11.247226 -2.370756 -9.019916 20.744562 -11.074622 -11.322818 4.685350 -0.847206 -26.274151 28.394497 15.552469 -26.012726 -1.436928 -3.126874 -7.319984 56.737593 -25.088758 -26.910849 0.679363 -0.602673 3.177938 5.225274 -12.417345 -8.875359 -0.865143 -1.010698 -0.000001 -0.000001 -0.000000 
0.000000 0.000000 0.000000 -0.000009 -0.000009 -90.000207 33.357468 254.194748 4.092027 74.152960 3.875745 90.601216 5.858130 -8.228016 -1.766429 -5.148425 -0.784189 0.384777 4.345143 -38.646954 0.803690 13.329308 -5.259175 -1.388167 -1.479025 -42.687450 -3.742819 0.388221 10.379489 -9.394578 4.105444 -6.028601 12.204247 -9.684802 0.404171 13.978650 -6.030980 -9.051341 -1.354256 -3.096414 -2.788865 1.933365 -4.325662 -38.368782 -0.484332 12.118006 2.141939 0.907071 1.905550 -42.004574 -3.456174 -3.694562 -13.806411 7.983266 -3.483984 -6.210554 13.032338 -2.436721 2.124877 -15.328411 0.443937 12.440353 -3.838513 5.314125 1.182227 1.828327 0.448843 13.795643 2.682033 -3.323302 1.741895 -5.523358 -0.226469 5.603235 0.285524 2.165852 2.588800 -2.702421 -1.339018 21.163546 -3.346767 -11.785895 -11.844460 -2.395354 1.011322 8.893723 5.040999 -0.493044 0.660359 0.488577 7.170255 11.399965 -1.889827 -3.930979 -5.015917 -7.960929 12.292150 4.520504 -1.904616 -1.714909 -12.378178 -52.394036 25.533190 -1.564906 -2.294679 19.847147 -56.042959 34.545260 26.570917 1.269802 -0.737475 -15.717015 -7.679331 7.723311 8.669066 -1.063593 -1.559434 0.000001 -0.000002 -0.000003 -8.295365 11.247227 -2.370746 -9.347499 22.119689 -14.180327 -11.322847 4.685340 -0.847211 -28.353519 30.086819 11.012950 -26.012728 -1.436925 -3.126872 -12.051330 56.333959 -23.092239 -26.910835 0.679379 -0.602695 4.735865 4.819104 -13.895485 -8.875373 -0.865140 -1.010689 0.000000 -0.000002 -0.000000 
0.000000 0.000000 0.000000 -0.000009 -0.000009 -90.000207 31.918230 250.932037 3.423025 67.056666 3.148919 91.648872 5.858132 -8.227997 -1.766384 -3.862977 -0.770074 -0.308908 4.345147 -38.646954 0.803710 10.375440 -5.189454 -1.322236 -1.479024 -42.687428 -3.742782 1.826196 10.977000 -9.281080 4.105425 -6.028588 12.204262 -9.996396 -0.037172 13.915202 -6.030971 -9.051332 -1.354240 -3.319445 -2.928103 2.826198 -4.325674 -38.368782 -0.484307 12.575166 1.671313 0.628453 1.905545 -42.004566 -3.456169 -2.674957 -14.690311 8.492350 -3.483987 -6.210534 13.032338 -1.817042 2.882711 -16.233369 0.443941 12.440347 -3.838506 5.451867 0.879550 2.177818 0.448852 13.795636 2.682044 -2.271685 2.067421 -6.480478 -0.226447 5.603246 0.285481 2.840119 2.718605 -3.119888 -1.339013 21.163555 -3.346763 -8.942590 -14.479753 -3.224985 1.011334 8.893731 5.040988 -1.115222 1.080018 1.206198 7.170248 11.399985 -1.889822 -2.646125 -4.723414 -8.682969 12.292149 4.520509 -1.904596 1.122623 -13.660891 -56.595525 25.533182 -1.564903 -2.294645 30.103577 -55.051267 36.924918 26.570927 1.269824 -0.737450 -16.452526 -7.547655 6.175227 8.669053 -1.063597 -1.559430 0.000001 0.000001 -0.000000 -8.295362 11.247244 -2.370740 -8.237022 21.374232 -16.575682 -11.322829 4.685315 -0.847207 -28.300935 28.426382 7.832556 -26.012716 -1.436914 -3.126871 -15.640134 44.222152 -16.620232 -26.910818 0.679385 -0.602674 6.167325 4.235055 -10.946207 -8.875375 -0.865161 -1.010724 -0.000002 0.000001 -0.000003 
0.000000 0.000000 0.000000 -0.000009 -0.000009 -90.000207 31.419687 243.773392 3.209800 63.906726 4.398721 92.042379 5.858137 -8.227988 -1.766394 -4.220598 -0.433753 -0.291331 4.345160 -38.646950 0.803697 12.687133 -4.507628 -1.170758 -1.479038 -42.687447 -3.742779 2.472420 11.151249 -10.010496 4.105448 -6.028591 12.204230 -10.008923 -2.356652 14.444353 -6.030973 -9.051312 -1.354251 -3.251544 -2.440860 2.693144 -4.325641 -38.368797 -0.484311 13.831819 2.275669 0.827811 1.905546 -42.004559 -3.456156 -1.431823 -14.343816 8.785980 -3.483984 -6.210555 13.032343 -2.232508 2.782816 -16.856191 0.443946 12.440359 -3.838522 5.119837 0.710526 2.389614 0.448844 13.795635 2.682012 -2.203092 2.011583 -6.852445 -0.226459 5.603240 0.285503 2.647448 2.762832 -3.414073 -1.339012 21.163542 -3.346764 -7.782353 -16.060807 -3.435836 1.011327 8.893753 5.040958 -0.346732 1.239524 1.097792 7.170252 11.399960 -1.889815 -1.939415 -5.754989 -8.504031 12.292144 4.520508 -1.904612 5.024131 -16.175669 -60.226347 25.533186 -1.564893 -2.294669 44.974866 -58.740303 44.840284 26.570921 1.269803 -0.737466 -14.816726 -8.241209 5.437207 8.669086 -1.063616 -1.559417 -0.000001 0.000000 -0.000001 -8.295357 11.247221 -2.370750 -8.542665 21.448486 -17.953395 -11.322851 4.685315 -0.847217 -28.755855 27.876206 4.700648 -26.012751 -1.436943 -3.126874 -18.174524 42.567071 -13.120674 -26.910833 0.679383 -0.602654 5.525192 4.856863 -11.839023 -8.875371 -0.865158 -1.010713 0.000001 0.000001 0.000002 
0.000000 0.000000 0.000000 -0.000009 -0.000009 -90.000207 31.891470 251.339844 3.183610 59.814617 4.487587 92.850145 5.858133 -8.228000 -1.766381 -4.240826 -0.486394 0.879676 4.345147 -38.646946 0.803699 13.540280 -5.134728 -1.166927 -1.479026 -42.687443 -3.742789 2.177895 11.485650 -10.634623 4.105446 -6.028596 12.204252 -9.506923 -2.853674 14.269850 -6.030967 -9.051314 -1.354249 -2.266022 -3.094299 2.444686 -4.325654 -38.368782 -0.484319 10.278107 2.378825 0.931868 1.905566 -42.004559 -3.456180 -2.001176 -14.805487 8.563151 -3.483985 -6.210567 13.032343 -1.363844 2.356903 -16.494420 0.443952 12.440356 -3.838512 5.612973 0.914253 2.436285 0.448852 13.795661 2.682013 -2.538012 2.661388 -7.192263 -0.226473 5.603234 0.285517 2.943662 3.057626 -3.507582 -1.339015 21.163561 -3.346773 -9.541159 -18.031845 -4.086092 1.011316 8.893730 5.040991 -0.604378 0.836275 1.376999 7.170249 11.399985 -1.889828 -1.525598 -3.547800 -10.163894 12.292140 4.520506 -1.904593 5.974032 -14.153856 -58.900464 25.533186 -1.564900 -2.294649 34.315591 -54.909701 33.345270 26.570940 1.269809 -0.737449 -14.154246 -7.204396 4.607326 8.669029 -1.063600 -1.559418 -0.000000 -0.000000 -0.000000 -8.295362 11.247233 -2.370753 -7.655787 20.203221 -16.778964 -11.322840 4.685352 -0.847214 -27.857726 26.273779 3.818743 -26.012766 -1.436926 -3.126869 -19.256960 34.399998 -10.951980 -26.910852 0.679347 -0.602684 7.044631 3.735525 -10.168568 -8.875395 -0.865158 -1.010707 -0.000002 -0.000001 -0.000001 
0.000000 0.000000 0.000000 -0.000009 -0.000009 -90.000207 31.981432 256.001343 3.620110 55.558791 3.510171 92.608773 5.858168 -8.228006 -1.766401 -3.740308 -0.572885 1.126484 4.345145 -38.646938 0.803684 12.003590 -5.259346 -1.029661 -1.479028 -42.687447 -3.742828 2.333907 11.583655 -10.698696 4.105449 -6.028607 12.204214 -9.325754 -2.416009 14.079077 -6.030944 -9.051330 -1.354253 -1.572575 -3.231791 2.828039 -4.325684 -38.368771 -0.484287 7.844209 2.262700 0.762850 1.905568 -42.004562 -3.456167 -1.969585 -15.199491 8.607018 -3.483989 -6.210576 13.032319 -0.850595 2.464489 -16.591578 0.443972 12.440353 -3.838518 5.178081 0.951337 2.489354 0.448840 13.795637 2.682041 -2.813887 2.744092 -7.497978 -0.226462 5.603236 0.285501 3.095831 3.073058 -3.599194 -1.339006 21.163555 -3.346755 -10.489012 -18.936544 -4.301008 1.011319 8.893751 5.040978 -0.771837 0.804995 1.683939 7.170251 11.399984 -1.889804 -1.517244 -2.919584 -10.761970 12.292134 4.520510 -1.904575 5.756063 -13.553288 -58.968759 25.533186 -1.564893 -2.294643 28.944487 -50.847237 27.298695 26.570932 1.269817 -0.737466 -14.799700 -6.725536 4.416647 8.669077 -1.063611 -1.559412 0.000002 -0.000002 -0.000001 -8.295354 11.247238 -2.370728 -7.563211 20.101322 -17.003657 -11.322849 4.685336 -0.847197 -27.851964 26.227875 3.717023 -26.012735 -1.436929 -3.126873 -19.127721 32.180809 -11.134136 -26.910856 0.679374 -0.602681 7.865975 3.248595 -9.811122 -8.875378 -0.865172 -1.010689 0.000001 -0.000000 0.000002 
0.000000 0.000000 0.000000 -0.000009 -0.000009 -90.000207 32.099854 257.764343 2.708797 49.375168 2.957501 93.303369 5.858174 -8.228011 -1.766419 -6.263160 -1.741334 1.114381 4.345138 -38.646946 0.803697 15.303534 -5.703090 -1.150909 -1.479033 -42.687454 -3.742796 2.432142 11.544685 -10.549221 4.105421 -6.028591 12.204269 -10.970793 -1.244607 14.588444 -6.030940 -9.051327 -1.354263 -0.430180 -3.603261 3.779214 -4.325652 -38.368793 -0.484325 8.553853 2.423294 0.473584 1.905550 -42.004562 -3.456183 -3.575217 -15.658303 8.498147 -3.483985 -6.210535 13.032342 -1.410314 2.676411 -17.861877 0.443996 12.440346 -3.838529 5.029850 1.686933 2.448353 0.448819 13.795645 2.682031 -2.826878 3.176175 -7.363799 -0.226464 5.603254 0.285502 3.762793 3.604716 -3.352197 -1.339019 21.163582 -3.346730 -11.947089 -17.426536 -5.613068 1.011328 8.893731 5.041000 -2.263809 0.710936 1.497349 7.170240 11.399972 -1.889789 -0.628903 0.617284 -7.754134 12.292137 4.520509 -1.904592 5.981195 -12.297941 -61.782340 25.533188 -1.564912 -2.294633 48.733714 -57.753873 49.296921 26.570911 1.269800 -0.737466 -19.364684 -8.211475 4.318534 8.669047 -1.063613 -1.559419 0.000000 0.000001 0.000002 -8.295382 11.247235 -2.370713 -7.137493 18.846799 -18.133276 -11.322847 4.685338 -0.847213 -27.721527 25.163819 5.677147 -26.012760 -1.436913 -3.126874 -16.560926 33.015376 -12.116026 -26.910851 0.679374 -0.602659 7.453610 3.372073 -8.690921 -8.875377 -0.865162 -1.010697 -0.000003 0.000002 0.000001 
0.000000 0.000000 0.000000 -0.000009 -0.000009 -90.000207 32.474464 255.114685 3.425614 47.797438 2.090423 92.826451 5.858132 -8.228007 -1.766396 -5.674754 -1.426902 1.175970 4.345109 -38.646954 0.803683 14.708345 -5.824705 -1.106652 -1.479034 -42.687439 -3.742814 2.332259 11.537458 -10.325361 4.105460 -6.028616 12.204222 -11.502089 -1.237471 14.946310 -6.030972 -9.051335 -1.354243 -0.780802 -3.362800 3.330031 -4.325661 -38.368793 -0.484307 9.432287 2.789018 0.487532 1.905534 -42.004559 -3.456178 -3.481391 -15.574913 9.224054 -3.483979 -6.210564 13.032341 -2.271672 2.525042 -18.781919 0.443968 12.440350 -3.838532 4.448582 1.511591 2.457716 0.448826 13.795642 2.682009 -2.920846 2.628714 -6.872112 -0.226479 5.603246 0.285488 4.289410 3.239358 -3.166577 -1.339032 21.163549 -3.346770 -11.120569 -16.310767 -4.887694 1.011314 8.893743 5.040988 -3.203486 1.069752 0.973139 7.170248 11.399961 -1.889827 0.087691 1.332584 -5.587414 12.292154 4.520514 -1.904599 8.079468 -11.861621 -63.564602 25.533171 -1.564889 -2.294618 53.702864 -55.776267 48.663476 26.570934 1.269804 -0.737500 -20.415816 -8.830130 3.245163 8.669049 -1.063597 -1.559428 -0.000000 -0.000002 -0.000002 -8.295387 11.247235 -2.370746 -8.021180 18.386745 -19.566585 -11.322842 4.685341 -0.847224 -28.170258 26.042031 6.518747 -26.012775 -1.436920 -3.126875 -13.607176 39.998657 -14.826604 -26.910847 0.679388 -0.602658 6.993784 4.336217 -9.627098 -8.875374 -0.865159 -1.010706 -0.000001 -0.000000 -0.000000 
